<mxfile host="app.diagrams.net" modified="2023-11-28T20:54:36.366Z" agent="Mozilla/5.0 (Windows NT 10.0; Win64; x64) AppleWebKit/537.36 (KHTML, like Gecko) Chrome/119.0.0.0 Safari/537.36" etag="zcYpd-pGDrjhtBFuEopl" version="22.1.4" type="google">
  <diagram id="rRmtudpdEV8kB-wlNoaQ" name="Page-1">
    <mxGraphModel grid="1" page="1" gridSize="10" guides="1" tooltips="1" connect="1" arrows="1" fold="1" pageScale="1" pageWidth="827" pageHeight="1169" math="0" shadow="0">
      <root>
        <mxCell id="0" />
        <mxCell id="1" parent="0" />
        <mxCell id="OLgAGGB-klX2j8NWGAoB-3" value="" style="edgeStyle=orthogonalEdgeStyle;rounded=0;orthogonalLoop=1;jettySize=auto;html=1;" edge="1" parent="1" source="tulF2AGn9xkQMnw531Gr-1" target="OLgAGGB-klX2j8NWGAoB-1">
          <mxGeometry relative="1" as="geometry" />
        </mxCell>
        <mxCell id="tulF2AGn9xkQMnw531Gr-1" value="&lt;span style=&quot;&quot; lang=&quot;EN-US&quot;&gt;&lt;font style=&quot;font-size: 12px;&quot;&gt;Iniciar&lt;/font&gt;&lt;/span&gt;" style="rounded=1;whiteSpace=wrap;html=1;" vertex="1" parent="1">
          <mxGeometry x="177" y="80" width="120" height="40" as="geometry" />
        </mxCell>
        <mxCell id="OLgAGGB-klX2j8NWGAoB-5" value="" style="edgeStyle=orthogonalEdgeStyle;rounded=0;orthogonalLoop=1;jettySize=auto;html=1;" edge="1" parent="1" source="OLgAGGB-klX2j8NWGAoB-1" target="OLgAGGB-klX2j8NWGAoB-4">
          <mxGeometry relative="1" as="geometry" />
        </mxCell>
        <mxCell id="OLgAGGB-klX2j8NWGAoB-7" value="" style="edgeStyle=orthogonalEdgeStyle;rounded=0;orthogonalLoop=1;jettySize=auto;html=1;" edge="1" parent="1" source="OLgAGGB-klX2j8NWGAoB-1" target="OLgAGGB-klX2j8NWGAoB-6">
          <mxGeometry relative="1" as="geometry" />
        </mxCell>
        <mxCell id="OLgAGGB-klX2j8NWGAoB-1" value="&lt;span style=&quot;&quot; lang=&quot;EN-US&quot;&gt;&lt;font style=&quot;font-size: 12px;&quot;&gt;São 00:01-08:00 ?&lt;/font&gt;&lt;/span&gt;" style="rhombus;whiteSpace=wrap;html=1;" vertex="1" parent="1">
          <mxGeometry x="177" y="160" width="121" height="80" as="geometry" />
        </mxCell>
        <mxCell id="OLgAGGB-klX2j8NWGAoB-2" value="" style="endArrow=classic;html=1;rounded=0;" edge="1" parent="1" target="OLgAGGB-klX2j8NWGAoB-1">
          <mxGeometry width="50" height="50" relative="1" as="geometry">
            <mxPoint x="237" y="120" as="sourcePoint" />
            <mxPoint x="237" y="160" as="targetPoint" />
          </mxGeometry>
        </mxCell>
        <mxCell id="GS8ITniQow93cl0-xdv3-6" value="" style="edgeStyle=orthogonalEdgeStyle;rounded=0;orthogonalLoop=1;jettySize=auto;html=1;" edge="1" parent="1" source="OLgAGGB-klX2j8NWGAoB-4" target="GS8ITniQow93cl0-xdv3-1">
          <mxGeometry relative="1" as="geometry" />
        </mxCell>
        <mxCell id="GS8ITniQow93cl0-xdv3-18" value="" style="edgeStyle=orthogonalEdgeStyle;rounded=0;orthogonalLoop=1;jettySize=auto;html=1;" edge="1" parent="1" source="OLgAGGB-klX2j8NWGAoB-4" target="GS8ITniQow93cl0-xdv3-13">
          <mxGeometry relative="1" as="geometry" />
        </mxCell>
        <mxCell id="OLgAGGB-klX2j8NWGAoB-4" value="São 08:01-12:00 ?" style="rhombus;whiteSpace=wrap;html=1;" vertex="1" parent="1">
          <mxGeometry x="177" y="300" width="121" height="80" as="geometry" />
        </mxCell>
        <mxCell id="OLgAGGB-klX2j8NWGAoB-6" value="Defina a velocidade para 50 km/h" style="whiteSpace=wrap;html=1;" vertex="1" parent="1">
          <mxGeometry x="387" y="170" width="120" height="60" as="geometry" />
        </mxCell>
        <mxCell id="GS8ITniQow93cl0-xdv3-5" value="" style="edgeStyle=orthogonalEdgeStyle;rounded=0;orthogonalLoop=1;jettySize=auto;html=1;" edge="1" parent="1" source="GS8ITniQow93cl0-xdv3-1" target="GS8ITniQow93cl0-xdv3-2">
          <mxGeometry relative="1" as="geometry" />
        </mxCell>
        <mxCell id="GS8ITniQow93cl0-xdv3-19" value="" style="edgeStyle=orthogonalEdgeStyle;rounded=0;orthogonalLoop=1;jettySize=auto;html=1;" edge="1" parent="1" source="GS8ITniQow93cl0-xdv3-1" target="GS8ITniQow93cl0-xdv3-14">
          <mxGeometry relative="1" as="geometry" />
        </mxCell>
        <mxCell id="GS8ITniQow93cl0-xdv3-1" value="São 12:01-18:00 ?" style="rhombus;whiteSpace=wrap;html=1;" vertex="1" parent="1">
          <mxGeometry x="177" y="440" width="121" height="80" as="geometry" />
        </mxCell>
        <mxCell id="GS8ITniQow93cl0-xdv3-4" value="" style="edgeStyle=orthogonalEdgeStyle;rounded=0;orthogonalLoop=1;jettySize=auto;html=1;exitX=0.5;exitY=1;exitDx=0;exitDy=0;entryX=0;entryY=0.5;entryDx=0;entryDy=0;fillColor=#fa6800;strokeColor=#C73500;" edge="1" parent="1" source="GS8ITniQow93cl0-xdv3-2" target="GS8ITniQow93cl0-xdv3-16">
          <mxGeometry relative="1" as="geometry">
            <mxPoint x="140" y="760" as="sourcePoint" />
            <mxPoint x="217" y="950" as="targetPoint" />
          </mxGeometry>
        </mxCell>
        <mxCell id="GS8ITniQow93cl0-xdv3-20" value="" style="edgeStyle=orthogonalEdgeStyle;rounded=0;orthogonalLoop=1;jettySize=auto;html=1;" edge="1" parent="1" source="GS8ITniQow93cl0-xdv3-2" target="GS8ITniQow93cl0-xdv3-15">
          <mxGeometry relative="1" as="geometry" />
        </mxCell>
        <mxCell id="GS8ITniQow93cl0-xdv3-2" value="São 18:01-22:00 ?" style="rhombus;whiteSpace=wrap;html=1;" vertex="1" parent="1">
          <mxGeometry x="177" y="590" width="121" height="80" as="geometry" />
        </mxCell>
        <mxCell id="GS8ITniQow93cl0-xdv3-7" value="NÃO" style="text;html=1;strokeColor=none;fillColor=none;align=center;verticalAlign=middle;whiteSpace=wrap;rounded=0;" vertex="1" parent="1">
          <mxGeometry x="187" y="240" width="60" height="30" as="geometry" />
        </mxCell>
        <mxCell id="GS8ITniQow93cl0-xdv3-8" value="NÃO" style="text;html=1;strokeColor=none;fillColor=none;align=center;verticalAlign=middle;whiteSpace=wrap;rounded=0;" vertex="1" parent="1">
          <mxGeometry x="187" y="380" width="60" height="30" as="geometry" />
        </mxCell>
        <mxCell id="GS8ITniQow93cl0-xdv3-9" value="NÃO" style="text;html=1;strokeColor=none;fillColor=none;align=center;verticalAlign=middle;whiteSpace=wrap;rounded=0;" vertex="1" parent="1">
          <mxGeometry x="187" y="520" width="60" height="30" as="geometry" />
        </mxCell>
        <mxCell id="GS8ITniQow93cl0-xdv3-10" value="NÃO" style="text;html=1;strokeColor=none;fillColor=none;align=center;verticalAlign=middle;whiteSpace=wrap;rounded=0;" vertex="1" parent="1">
          <mxGeometry x="187" y="670" width="60" height="30" as="geometry" />
        </mxCell>
        <mxCell id="GS8ITniQow93cl0-xdv3-11" value="SIM" style="text;html=1;strokeColor=none;fillColor=none;align=center;verticalAlign=middle;whiteSpace=wrap;rounded=0;" vertex="1" parent="1">
          <mxGeometry x="297" y="170" width="60" height="30" as="geometry" />
        </mxCell>
        <mxCell id="GS8ITniQow93cl0-xdv3-13" value="Defina a velocidade para 35 km/h" style="whiteSpace=wrap;html=1;" vertex="1" parent="1">
          <mxGeometry x="387" y="310" width="120" height="60" as="geometry" />
        </mxCell>
        <mxCell id="GS8ITniQow93cl0-xdv3-14" value="Defina a velocidade para 42 km/h" style="whiteSpace=wrap;html=1;" vertex="1" parent="1">
          <mxGeometry x="387" y="450" width="120" height="60" as="geometry" />
        </mxCell>
        <mxCell id="GS8ITniQow93cl0-xdv3-15" value="Defina a velocidade para 30 km/h" style="whiteSpace=wrap;html=1;" vertex="1" parent="1">
          <mxGeometry x="387" y="600" width="120" height="60" as="geometry" />
        </mxCell>
        <mxCell id="GS8ITniQow93cl0-xdv3-16" value="Defina a velocidade para 50 km/h" style="whiteSpace=wrap;html=1;" vertex="1" parent="1">
          <mxGeometry x="387" y="740" width="120" height="60" as="geometry" />
        </mxCell>
        <mxCell id="GS8ITniQow93cl0-xdv3-22" value="Terminar" style="rounded=1;whiteSpace=wrap;html=1;" vertex="1" parent="1">
          <mxGeometry x="537" y="849" width="120" height="40" as="geometry" />
        </mxCell>
        <mxCell id="GS8ITniQow93cl0-xdv3-24" value="" style="edgeStyle=segmentEdgeStyle;endArrow=classic;html=1;curved=0;rounded=0;endSize=8;startSize=8;entryX=0.5;entryY=0;entryDx=0;entryDy=0;" edge="1" parent="1" target="GS8ITniQow93cl0-xdv3-22">
          <mxGeometry width="50" height="50" relative="1" as="geometry">
            <mxPoint x="507" y="200" as="sourcePoint" />
            <mxPoint x="597" y="840" as="targetPoint" />
            <Array as="points">
              <mxPoint x="597" y="200" />
            </Array>
          </mxGeometry>
        </mxCell>
        <mxCell id="GS8ITniQow93cl0-xdv3-28" value="" style="line;strokeWidth=2;html=1;" vertex="1" parent="1">
          <mxGeometry x="507" y="335" width="90" height="10" as="geometry" />
        </mxCell>
        <mxCell id="GS8ITniQow93cl0-xdv3-29" value="" style="line;strokeWidth=2;html=1;" vertex="1" parent="1">
          <mxGeometry x="507" y="475" width="90" height="10" as="geometry" />
        </mxCell>
        <mxCell id="GS8ITniQow93cl0-xdv3-30" value="" style="line;strokeWidth=2;html=1;" vertex="1" parent="1">
          <mxGeometry x="507" y="625" width="90" height="10" as="geometry" />
        </mxCell>
        <mxCell id="GS8ITniQow93cl0-xdv3-31" value="" style="line;strokeWidth=2;html=1;" vertex="1" parent="1">
          <mxGeometry x="507" y="765" width="90" height="10" as="geometry" />
        </mxCell>
        <mxCell id="GS8ITniQow93cl0-xdv3-32" value="SIM" style="text;html=1;strokeColor=none;fillColor=none;align=center;verticalAlign=middle;whiteSpace=wrap;rounded=0;" vertex="1" parent="1">
          <mxGeometry x="297" y="310" width="60" height="30" as="geometry" />
        </mxCell>
        <mxCell id="GS8ITniQow93cl0-xdv3-33" value="SIM" style="text;html=1;strokeColor=none;fillColor=none;align=center;verticalAlign=middle;whiteSpace=wrap;rounded=0;" vertex="1" parent="1">
          <mxGeometry x="287" y="450" width="60" height="30" as="geometry" />
        </mxCell>
        <mxCell id="GS8ITniQow93cl0-xdv3-34" value="SIM" style="text;html=1;strokeColor=none;fillColor=none;align=center;verticalAlign=middle;whiteSpace=wrap;rounded=0;" vertex="1" parent="1">
          <mxGeometry x="297" y="600" width="60" height="30" as="geometry" />
        </mxCell>
      </root>
    </mxGraphModel>
  </diagram>
</mxfile>
